<svg width="512" height="512" viewBox="0 0 512 512" fill="none" xmlns="http://www.w3.org/2000/svg">
<g clip-path="url(#clip0_1_7)">
<mask id="mask0_1_7" style="mask-type:alpha" maskUnits="userSpaceOnUse" x="-201" y="-201" width="914" height="914">
<path d="M296.902 254.536C296.98 259.968 295.977 265.362 293.952 270.404C291.927 275.445 288.92 280.034 285.106 283.903C281.292 287.773 276.747 290.845 271.735 292.942C266.723 295.04 261.344 296.12 255.911 296.12C250.478 296.12 245.099 295.04 240.087 292.942C235.075 290.845 230.53 287.773 226.716 283.903C222.902 280.034 219.895 275.445 217.87 270.404C215.845 265.362 214.843 259.968 214.921 254.536C215.076 243.767 219.462 233.491 227.133 225.93C234.803 218.369 245.141 214.13 255.911 214.13C266.682 214.13 277.019 218.369 284.69 225.93C292.36 233.491 296.747 243.767 296.902 254.536Z" fill="white"/>
<path d="M476.037 254.536C476.037 225.381 439.528 197.749 383.554 180.62C396.477 123.572 390.73 78.1762 365.435 63.6453C359.604 60.2347 352.791 58.6268 345.344 58.6268V78.6248C349.473 78.6248 352.791 79.4372 355.567 80.9606C367.77 87.9594 373.06 114.601 368.938 148.867C367.836 157.726 366.308 166.526 364.36 175.238C345.61 170.717 326.58 167.451 307.396 165.463C295.974 149.695 283.508 134.711 270.082 120.61C299.33 93.4265 326.776 78.5401 345.437 78.5401V58.5337C320.767 58.5337 288.472 76.1197 255.822 106.612C223.172 76.2974 190.878 58.8891 166.208 58.8891V78.8956C184.776 78.8956 212.314 93.6973 241.562 120.694C228.204 134.754 215.825 149.712 204.511 165.463C184.243 167.613 165.04 170.93 147.463 175.323C145.484 166.735 143.927 158.056 142.799 149.316C138.576 115.049 143.781 88.408 155.892 81.316C158.583 79.708 162.078 78.9887 166.208 78.9887V58.9822C158.676 58.9822 151.855 60.5986 145.939 64.0092C120.728 78.5401 115.075 123.834 128.082 180.705C72.286 197.936 35.963 225.474 35.963 254.536C35.963 283.691 72.4722 311.314 128.446 328.451C115.523 385.5 121.27 430.887 146.565 445.418C152.396 448.829 159.209 450.445 166.75 450.445C191.411 450.445 223.705 432.859 256.355 402.358C289.014 432.681 321.3 450.081 345.97 450.081C353.51 450.081 360.323 448.473 366.247 445.063C391.45 430.532 397.103 385.229 384.095 328.358C439.714 311.229 476.037 283.598 476.037 254.536ZM359.248 194.703C355.76 206.695 351.719 218.519 347.138 230.137C343.429 222.848 339.509 215.669 335.383 208.607C331.261 201.5 326.955 194.502 322.468 187.619C335.205 189.498 347.493 191.834 359.248 194.703ZM318.16 290.233C311.447 301.958 304.236 313.39 296.546 324.499C283.183 325.667 269.634 326.293 256 326.293C242.459 326.293 228.91 325.667 215.632 324.592C207.937 313.528 200.696 302.156 193.924 290.503C187.195 278.879 180.972 266.969 175.272 254.807C180.943 242.612 187.138 230.668 193.84 219.008C200.555 207.285 207.766 195.852 215.454 184.742C228.937 183.56 242.465 182.961 256 182.948C269.549 182.948 283.09 183.582 296.368 184.657C304.065 195.72 311.306 207.093 318.076 218.746C324.805 230.371 331.028 242.281 336.728 254.443C331.024 266.618 324.829 278.558 318.16 290.233ZM347.138 278.571C351.844 290.263 355.977 302.179 359.519 314.276C347.318 317.24 334.985 319.635 322.561 321.453C327.04 314.473 331.346 307.385 335.476 300.194C339.606 293.017 343.456 285.747 347.138 278.571ZM256.178 374.287C247.381 365.152 239.059 355.57 231.246 345.58C239.461 345.97 247.683 346.179 255.907 346.207C264.344 346.207 272.681 346.029 280.847 345.58C273.146 355.586 264.911 365.168 256.178 374.287ZM189.439 321.453C177.078 319.659 164.808 317.293 152.667 314.361C156.151 302.371 160.189 290.55 164.769 278.935C168.451 286.111 172.31 293.288 176.524 300.464C180.685 307.548 184.991 314.546 189.439 321.453ZM255.729 134.785C264.531 143.915 272.856 153.494 280.67 163.483C272.452 163.093 264.227 162.884 256 162.857C247.571 162.857 239.226 163.034 231.06 163.483C238.759 153.479 246.994 143.899 255.729 134.785ZM189.354 187.619C180.447 201.458 172.242 215.736 164.769 230.4C160.064 218.71 155.935 206.797 152.396 194.703C164.607 191.806 176.938 189.442 189.354 187.619ZM108.169 299.923C76.416 286.374 55.8763 268.618 55.8763 254.536C55.8763 240.454 76.416 222.597 108.169 209.141C116.302 205.727 124.594 202.705 133.016 200.085C138.503 218.73 145.247 236.981 153.2 254.714C145.336 272.36 138.683 290.521 133.287 309.071C124.769 306.436 116.387 303.383 108.169 299.923ZM156.433 428.111C144.23 421.112 138.94 394.471 143.062 360.204C144.052 351.767 145.668 342.889 147.64 333.834C166.391 338.351 185.421 341.616 204.604 343.609C216.029 359.375 228.494 374.359 241.918 388.462C212.678 415.637 185.224 430.532 166.563 430.532C162.527 430.439 159.124 429.635 156.433 428.111ZM369.201 359.756C373.424 394.022 368.219 420.664 356.108 427.747C353.417 429.364 349.922 430.083 345.792 430.083C327.224 430.083 299.686 415.281 270.446 388.276C283.801 374.219 296.177 359.264 307.489 343.516C327.766 341.366 346.96 338.048 364.538 333.648C366.602 342.711 368.219 351.411 369.201 359.756ZM403.738 299.923C396.028 303.24 387.591 306.202 378.891 308.987C373.405 290.342 366.662 272.09 358.707 254.358C366.574 236.711 373.227 218.546 378.62 199.992C387.506 202.776 395.935 205.823 403.831 209.141C435.584 222.69 456.124 240.454 456.124 254.536C456.039 268.618 435.491 286.467 403.738 299.923Z" fill="white"/>
</mask>
<g mask="url(#mask0_1_7)">
<path d="M262.985 -7.58108C255.103 -12.0432 245.744 -12.0432 237.864 -7.58108L30.5009 112.945C22.6205 117.41 18.1874 125.84 18.1874 134.77V376.313C18.1874 385.242 23.1128 393.672 30.5009 398.137L237.864 518.662C245.744 523.125 255.103 523.125 262.985 518.662L470.346 398.137C478.229 393.672 482.66 385.242 482.66 376.313V134.77C482.66 125.84 477.736 117.41 470.346 112.945L262.985 -7.58108Z" fill="url(#paint0_linear_1_7)"/>
<path d="M470.839 112.945L262.492 -7.58117C260.521 -8.57299 258.059 -9.5648 256.088 -10.0596L22.6216 392.185C24.5909 394.664 27.0526 396.648 29.5163 398.137L237.865 518.662C243.774 522.133 250.671 523.124 257.073 521.141L476.259 117.409C474.781 115.426 472.809 113.937 470.839 112.945Z" fill="url(#paint1_linear_1_7)"/>
<path d="M470.845 398.13C476.756 394.657 481.189 388.706 483.158 382.257L255.107 -10.5631C249.198 -11.5549 242.793 -11.0612 237.377 -7.58766L30.505 112.441L253.629 522.126C256.584 521.629 260.034 520.636 262.989 519.151L470.845 398.13Z" fill="url(#paint2_linear_1_7)"/>
</g>
</g>
<defs>
<linearGradient id="paint0_linear_1_7" x1="334.877" y1="82.1828" x2="145.276" y2="466.285" gradientUnits="userSpaceOnUse">
<stop stop-color="#3F873F"/>
<stop offset="0.3296" stop-color="#3F8B3D"/>
<stop offset="0.6367" stop-color="#3E9638"/>
<stop offset="0.9341" stop-color="#3DA92E"/>
<stop offset="1" stop-color="#3DAE2B"/>
</linearGradient>
<linearGradient id="paint1_linear_1_7" x1="218.91" y1="283.746" x2="747.571" y2="-104.147" gradientUnits="userSpaceOnUse">
<stop offset="0.1376" stop-color="#3F873F"/>
<stop offset="0.4016" stop-color="#52A044"/>
<stop offset="0.7129" stop-color="#64B749"/>
<stop offset="0.9081" stop-color="#6ABF4B"/>
</linearGradient>
<linearGradient id="paint2_linear_1_7" x1="10.5893" y1="255.455" x2="490.416" y2="255.455" gradientUnits="userSpaceOnUse">
<stop offset="0.0919165" stop-color="#6ABF4B"/>
<stop offset="0.2871" stop-color="#64B749"/>
<stop offset="0.5984" stop-color="#52A044"/>
<stop offset="0.8624" stop-color="#3F873F"/>
</linearGradient>
<clipPath id="clip0_1_7">
<rect width="512" height="512" fill="white"/>
</clipPath>
</defs>
</svg>
