<svg width="512" height="512" viewBox="0 0 512 512" fill="none" xmlns="http://www.w3.org/2000/svg">
<g clip-path="url(#clip0_91_32)">
<path d="M267.97 6.25373C260.5 2.02544 251.632 2.02544 244.165 6.25373L47.6682 120.464C40.2008 124.694 36 132.683 36 141.145V370.03C36 378.492 40.6673 386.48 47.6682 390.711L244.165 504.92C251.632 509.148 260.5 509.148 267.97 504.92L464.464 390.711C471.934 386.48 476.132 378.492 476.132 370.03V141.145C476.132 132.683 471.466 124.694 464.464 120.464L267.97 6.25373Z" fill="url(#paint0_linear_91_32)"/>
<path d="M464.931 120.464L267.502 6.25364C265.634 5.3138 263.301 4.37396 261.433 3.90505L40.2018 385.071C42.0679 387.419 44.4006 389.3 46.7352 390.711L244.166 504.92C249.765 508.208 256.301 509.148 262.367 507.269L470.067 124.694C468.666 122.815 466.798 121.404 464.931 120.464Z" fill="url(#paint1_linear_91_32)"/>
<path d="M464.936 390.704C470.538 387.413 474.739 381.774 476.605 375.663L260.504 3.42797C254.905 2.48813 248.836 2.95601 243.703 6.2475L47.672 119.986L259.103 508.202C261.904 507.732 265.173 506.791 267.973 505.383L464.936 390.704Z" fill="url(#paint2_linear_91_32)"/>
<mask id="mask0_91_32" style="mask-type:alpha" maskUnits="userSpaceOnUse" x="-369" y="-369" width="1250" height="1250">
<path d="M447.29 364.75C461.867 339.502 444.065 297.317 404.155 254.496C443.871 211.552 461.592 169.365 446.95 144.133C443.606 138.264 438.51 133.465 432.06 129.741L422.061 147.06C425.638 149.125 428.105 151.488 429.747 154.195C436.816 166.358 428.076 192.075 407.374 219.689C401.99 226.81 396.267 233.668 390.223 240.238C376.246 226.948 361.398 214.605 345.778 203.291C343.771 183.924 340.467 164.714 335.891 145.79C374.812 136.872 406.024 137.703 422.184 147.033L432.188 129.707C410.823 117.373 374.062 116.455 330.54 126.537C317.422 83.959 298.158 52.7357 276.793 40.4009L266.79 57.727C282.87 67.0109 299.318 93.5988 311.149 131.603C292.551 137.1 274.352 143.864 256.678 151.848C238.05 143.576 219.761 136.847 202.343 131.862C204.922 123.436 207.914 115.141 211.307 107.008C224.784 75.2213 242.612 54.7515 256.646 54.665C259.78 54.618 263.167 55.7426 266.744 57.8076L276.747 40.4815C270.224 36.7155 263.508 34.7048 256.68 34.7006C227.581 34.6792 200.038 71.0781 182.868 126.834C125.931 113.858 80.7053 119.545 66.1744 144.713C51.597 169.962 69.4033 212.139 109.31 254.968C69.5935 297.912 51.8765 340.091 66.5179 365.323C69.8624 371.193 74.9541 375.999 81.4844 379.769C102.842 392.1 139.603 393.017 183.129 382.928C196.25 425.517 215.511 456.729 236.876 469.064C243.406 472.834 250.11 474.848 256.945 474.856C286.037 474.874 313.584 438.467 330.755 382.712C387.486 395.687 432.759 389.919 447.29 364.75ZM376.064 254.539C367.048 263.181 357.636 271.4 347.859 279.171C348.291 271.004 348.486 262.826 348.444 254.648C348.428 246.432 348.198 238.218 347.753 230.015C357.844 238.01 367.318 246.177 376.064 254.539ZM292.716 316.727C281.04 323.524 269.078 329.819 256.864 335.595C244.708 329.925 232.661 323.693 220.853 316.876C209.127 310.105 197.706 302.788 186.744 295.218C185.613 281.789 185.027 268.32 184.989 254.843C184.974 241.411 185.54 227.985 186.684 214.602C197.692 206.877 209.029 199.631 220.663 192.884C232.341 186.089 244.302 179.793 256.515 174.016C268.783 179.733 280.798 185.979 292.526 192.735C304.26 199.509 315.669 206.829 326.631 214.399C327.765 227.828 328.35 241.298 328.386 254.775C328.401 268.207 327.836 281.633 326.691 295.015C315.663 302.707 304.329 309.95 292.716 316.727ZM323.642 321.116C321.872 333.595 319.493 345.981 316.512 358.228C304.464 354.694 292.586 350.602 280.917 345.964C288.286 342.159 295.559 338.174 302.731 334.011C309.896 329.86 316.866 325.49 323.642 321.116ZM197.011 358.528C193.96 346.218 191.544 333.76 189.772 321.202C196.691 325.647 203.708 329.939 210.816 334.075C218.123 338.293 225.431 342.308 232.728 346.002C221.056 350.816 209.133 354.998 197.011 358.528ZM165.63 279.403C155.822 271.67 146.379 263.485 137.331 254.875C146.343 246.234 155.751 238.015 165.525 230.247C165.124 238.302 164.878 246.447 164.94 254.769C165.001 262.984 165.231 271.197 165.63 279.403ZM316.373 150.889C319.431 163.197 321.851 175.655 323.623 188.213C316.701 183.766 309.682 179.473 302.572 175.335C295.272 171.121 287.957 167.103 280.66 163.408C292.329 158.593 304.251 154.414 316.373 150.889ZM232.473 163.458C217.84 170.989 203.595 179.251 189.792 188.214C191.562 175.738 193.942 163.356 196.925 151.113C208.948 154.709 220.809 158.828 232.473 163.458ZM106.013 220.123C85.2889 192.512 76.3787 166.866 83.4199 154.67C90.4611 142.474 117.177 137.28 151.404 141.503C160.155 142.613 168.847 144.142 177.45 146.084C172.88 164.974 169.594 184.152 167.616 203.486C151.983 214.836 137.14 227.238 123.192 240.604C117.133 234.063 111.4 227.228 106.013 220.123ZM83.7171 355.269C76.6479 343.106 85.3878 317.389 106.09 289.775C111.167 282.962 117.005 276.082 123.241 269.226C137.221 282.513 152.068 294.856 167.686 306.173C169.696 325.539 172.999 344.749 177.573 363.674C138.664 372.589 107.441 371.761 91.2798 362.43C87.8304 360.331 85.2861 357.934 83.7171 355.269ZM302.157 402.455C288.681 434.243 270.853 454.712 256.823 454.792C253.684 454.846 250.297 453.721 246.721 451.656C230.641 442.372 214.192 415.785 202.373 377.778C220.967 372.281 239.163 365.518 256.833 357.535C275.468 365.812 293.749 372.536 311.172 377.514C308.429 386.396 305.479 394.738 302.157 402.455ZM361.983 367.907C353.648 366.925 344.86 365.272 335.933 363.333C340.505 344.443 343.791 325.266 345.767 305.931C361.405 294.582 376.249 282.178 390.196 268.806C396.499 275.66 402.276 282.513 407.455 289.334C428.18 316.944 437.085 342.598 430.044 354.794C422.93 366.947 396.21 372.13 361.983 367.907Z" fill="white"/>
</mask>
<g mask="url(#mask0_91_32)">
<path d="M267.97 6.25373C260.5 2.02544 251.632 2.02544 244.165 6.25373L47.6682 120.464C40.2008 124.694 36 132.683 36 141.145V370.03C36 378.492 40.6673 386.48 47.6682 390.711L244.165 504.92C251.632 509.148 260.5 509.148 267.97 504.92L464.464 390.711C471.934 386.48 476.132 378.492 476.132 370.03V141.145C476.132 132.683 471.466 124.694 464.464 120.464L267.97 6.25373Z" fill="url(#paint3_linear_91_32)"/>
<path d="M464.931 120.464L267.502 6.25364C265.634 5.3138 263.301 4.37396 261.433 3.90505L40.2018 385.071C42.0679 387.419 44.4006 389.3 46.7352 390.711L244.166 504.92C249.765 508.208 256.301 509.148 262.367 507.269L470.067 124.694C468.666 122.815 466.798 121.404 464.931 120.464Z" fill="url(#paint4_linear_91_32)"/>
<path d="M464.936 390.704C470.538 387.413 474.739 381.774 476.605 375.663L260.504 3.42797C254.905 2.48813 248.836 2.95601 243.703 6.2475L47.672 119.986L259.103 508.202C261.904 507.732 265.173 506.791 267.973 505.383L464.936 390.704Z" fill="url(#paint5_linear_91_32)"/>
</g>
</g>
<defs>
<linearGradient id="paint0_linear_91_32" x1="336.094" y1="91.3137" x2="156.429" y2="455.287" gradientUnits="userSpaceOnUse">
<stop stop-color="#333333" stop-opacity="0.8"/>
<stop offset="0.3296" stop-color="#333333" stop-opacity="0.8"/>
<stop offset="0.6367" stop-color="#333333" stop-opacity="0.8"/>
<stop offset="0.9341" stop-color="#363636" stop-opacity="0.79"/>
<stop offset="1" stop-color="#383838" stop-opacity="0.78"/>
</linearGradient>
<linearGradient id="paint1_linear_91_32" x1="226.204" y1="282.314" x2="727.161" y2="-85.2515" gradientUnits="userSpaceOnUse">
<stop offset="0.1376" stop-color="#262626" stop-opacity="0.85"/>
<stop offset="0.4016" stop-color="#333333" stop-opacity="0.8"/>
<stop offset="0.7129" stop-color="#404040" stop-opacity="0.75"/>
<stop offset="0.9081" stop-color="#424242" stop-opacity="0.74"/>
</linearGradient>
<linearGradient id="paint2_linear_91_32" x1="28.8001" y1="255.506" x2="483.482" y2="255.506" gradientUnits="userSpaceOnUse">
<stop offset="0.0919165" stop-color="#424242" stop-opacity="0.74"/>
<stop offset="0.2871" stop-color="#404040" stop-opacity="0.75"/>
<stop offset="0.5984" stop-color="#383838" stop-opacity="0.78"/>
<stop offset="0.8624" stop-color="#303030" stop-opacity="0.81"/>
</linearGradient>
<linearGradient id="paint3_linear_91_32" x1="336.094" y1="91.3137" x2="156.429" y2="455.287" gradientUnits="userSpaceOnUse">
<stop stop-color="#3F873F"/>
<stop offset="0.3296" stop-color="#3F8B3D"/>
<stop offset="0.6367" stop-color="#3E9638"/>
<stop offset="0.9341" stop-color="#3DA92E"/>
<stop offset="1" stop-color="#3DAE2B"/>
</linearGradient>
<linearGradient id="paint4_linear_91_32" x1="226.204" y1="282.314" x2="727.161" y2="-85.2515" gradientUnits="userSpaceOnUse">
<stop offset="0.1376" stop-color="#3F873F"/>
<stop offset="0.4016" stop-color="#52A044"/>
<stop offset="0.7129" stop-color="#64B749"/>
<stop offset="0.9081" stop-color="#6ABF4B"/>
</linearGradient>
<linearGradient id="paint5_linear_91_32" x1="28.8001" y1="255.506" x2="483.482" y2="255.506" gradientUnits="userSpaceOnUse">
<stop offset="0.0919165" stop-color="#6ABF4B"/>
<stop offset="0.2871" stop-color="#64B749"/>
<stop offset="0.5984" stop-color="#52A044"/>
<stop offset="0.8624" stop-color="#3F873F"/>
</linearGradient>
<clipPath id="clip0_91_32">
<rect width="512" height="512" fill="white"/>
</clipPath>
</defs>
</svg>
