<svg width="190" height="63" viewBox="0 0 190 63" fill="none" xmlns="http://www.w3.org/2000/svg">
<path d="M0.623047 10.5176V4.00195C0.623047 3.19336 0.787109 2.46875 1.11523 1.82812C1.47852 1.15625 1.99609 0.820312 2.66797 0.820312H4.93555V2.11523H2.66797C2.3125 2.11523 2.04297 2.27539 1.85938 2.5957C1.67969 2.91211 1.58984 3.38086 1.58984 4.00195V10.5176H0.623047Z" fill="#FA0000"/>
<path d="M4.51953 2.11523V0.820312H12.1719V2.11523H4.51953Z" fill="#FA0000"/>
<path d="M11.75 2.11523V0.820312H19.4023V2.11523H11.75Z" fill="#FA0000"/>
<path d="M18.9805 2.11523V0.820312H26.6328V2.11523H18.9805Z" fill="#FA0000"/>
<path d="M26.2109 2.11523V0.820312H33.8633V2.11523H26.2109Z" fill="#FA0000"/>
<path d="M33.4414 2.11523V0.820312H41.0938V2.11523H33.4414Z" fill="#FA0000"/>
<path d="M40.6719 2.11523V0.820312H48.3242V2.11523H40.6719Z" fill="#FA0000"/>
<path d="M47.9023 2.11523V0.820312H55.5547V2.11523H47.9023Z" fill="#FA0000"/>
<path d="M55.1328 2.11523V0.820312H62.7852V2.11523H55.1328Z" fill="#FA0000"/>
<path d="M62.3633 2.11523V0.820312H70.0156V2.11523H62.3633Z" fill="#FA0000"/>
<path d="M69.5938 2.11523V0.820312H77.2461V2.11523H69.5938Z" fill="#FA0000"/>
<path d="M76.8242 2.11523V0.820312H84.4766V2.11523H76.8242Z" fill="#FA0000"/>
<path d="M84.0547 2.11523V0.820312H91.707V2.11523H84.0547Z" fill="#FA0000"/>
<path d="M91.2852 2.11523V0.820312H98.9375V2.11523H91.2852Z" fill="#FA0000"/>
<path d="M98.5156 2.11523V0.820312H106.168V2.11523H98.5156Z" fill="#FA0000"/>
<path d="M105.746 2.11523V0.820312H113.398V2.11523H105.746Z" fill="#FA0000"/>
<path d="M112.977 2.11523V0.820312H120.629V2.11523H112.977Z" fill="#FA0000"/>
<path d="M120.207 2.11523V0.820312H127.859V2.11523H120.207Z" fill="#FA0000"/>
<path d="M127.438 2.11523V0.820312H135.09V2.11523H127.438Z" fill="#FA0000"/>
<path d="M134.668 2.11523V0.820312H142.32V2.11523H134.668Z" fill="#FA0000"/>
<path d="M141.898 2.11523V0.820312H149.551V2.11523H141.898Z" fill="#FA0000"/>
<path d="M149.129 2.11523V0.820312H156.781V2.11523H149.129Z" fill="#FA0000"/>
<path d="M156.359 2.11523V0.820312H164.012V2.11523H156.359Z" fill="#FA0000"/>
<path d="M163.59 2.11523V0.820312H171.242V2.11523H163.59Z" fill="#FA0000"/>
<path d="M170.82 2.11523V0.820312H178.473V2.11523H170.82Z" fill="#FA0000"/>
<path d="M178.051 2.11523V0.820312H185.703V2.11523H178.051Z" fill="#FA0000"/>
<path d="M188.621 10.5176V4.00195C188.621 3.36914 188.529 2.89844 188.346 2.58984C188.166 2.27344 187.898 2.11523 187.543 2.11523H185.281V0.820312H187.543C188.215 0.820312 188.732 1.15625 189.096 1.82812C189.424 2.43359 189.588 3.1582 189.588 4.00195V10.5176H188.621Z" fill="#FA0000"/>
<path d="M0.623047 25.5176V5.83594H1.58984V25.5176H0.623047Z" fill="#E60000"/>
<path d="M10.2559 24.7207V22.752H11.2168V24.7207H10.2559ZM6.42969 24.7207V22.752H7.38477V24.7207H6.42969ZM8.33984 21.9668V19.998H9.30078V21.9668H8.33984ZM4.51953 21.9668V19.998H5.46875V21.9668H4.51953ZM10.2559 19.207V17.2383H11.2168V19.207H10.2559ZM6.42969 19.207V17.2383H7.38477V19.207H6.42969ZM8.33984 16.4531V14.4844H9.30078V16.4531H8.33984ZM4.51953 16.4531V14.4844H5.46875V16.4531H4.51953ZM10.2559 13.6934V11.7246H11.2168V13.6934H10.2559ZM6.42969 13.6934V11.7246H7.38477V13.6934H6.42969ZM8.33984 10.9395V8.9707H9.30078V10.9395H8.33984ZM4.51953 10.9395V8.9707H5.46875V10.9395H4.51953Z" fill="#E60000"/>
<path d="M11.75 24.7207V8.9707H19.4023V24.7207H11.75Z" fill="#E60000"/>
<path d="M18.9805 16.8457V8.9707H26.6328V16.8457H18.9805Z" fill="#E60000"/>
<path d="M26.2109 16.8457V8.9707H33.8633V16.8457H26.2109Z" fill="#E60000"/>
<path d="M39.1777 24.7207V22.752H40.1387V24.7207H39.1777ZM35.3516 24.7207V22.752H36.3066V24.7207H35.3516ZM37.2617 21.9668V19.998H38.2227V21.9668H37.2617ZM33.4414 21.9668V19.998H34.3906V21.9668H33.4414ZM39.1777 19.207V17.2383H40.1387V19.207H39.1777ZM35.3516 19.207V17.2383H36.3066V19.207H35.3516ZM37.2617 16.4531V14.4844H38.2227V16.4531H37.2617ZM33.4414 16.4531V14.4844H34.3906V16.4531H33.4414ZM39.1777 13.6934V11.7246H40.1387V13.6934H39.1777ZM35.3516 13.6934V11.7246H36.3066V13.6934H35.3516ZM37.2617 10.9395V8.9707H38.2227V10.9395H37.2617ZM33.4414 10.9395V8.9707H34.3906V10.9395H33.4414Z" fill="#E60000"/>
<path d="M40.6719 24.7207V8.9707H48.3242V24.7207H40.6719Z" fill="#E60000"/>
<path d="M47.9023 16.8457V8.9707H55.5547V16.8457H47.9023Z" fill="#E60000"/>
<path d="M55.1328 16.8457V8.9707H62.7852V16.8457H55.1328Z" fill="#E60000"/>
<path d="M68.0996 24.7207V22.752H69.0605V24.7207H68.0996ZM64.2734 24.7207V22.752H65.2285V24.7207H64.2734ZM66.1836 21.9668V19.998H67.1445V21.9668H66.1836ZM62.3633 21.9668V19.998H63.3125V21.9668H62.3633ZM68.0996 19.207V17.2383H69.0605V19.207H68.0996ZM64.2734 19.207V17.2383H65.2285V19.207H64.2734ZM66.1836 16.4531V14.4844H67.1445V16.4531H66.1836ZM62.3633 16.4531V14.4844H63.3125V16.4531H62.3633ZM68.0996 13.6934V11.7246H69.0605V13.6934H68.0996ZM64.2734 13.6934V11.7246H65.2285V13.6934H64.2734ZM66.1836 10.9395V8.9707H67.1445V10.9395H66.1836ZM62.3633 10.9395V8.9707H63.3125V10.9395H62.3633Z" fill="#E60000"/>
<path d="M69.5938 24.7207V8.9707H77.2461V24.7207H69.5938Z" fill="#E60000"/>
<path d="M76.8242 16.8457V8.9707H84.4766V16.8457H76.8242Z" fill="#E60000"/>
<path d="M84.0547 24.7207V16.8457H91.707V24.7207H84.0547Z" fill="#E60000"/>
<path d="M97.0215 24.7207V22.752H97.9824V24.7207H97.0215ZM93.1953 24.7207V22.752H94.1504V24.7207H93.1953ZM95.1055 21.9668V19.998H96.0664V21.9668H95.1055ZM91.2852 21.9668V19.998H92.2344V21.9668H91.2852ZM97.0215 19.207V17.2383H97.9824V19.207H97.0215ZM93.1953 19.207V17.2383H94.1504V19.207H93.1953ZM95.1055 16.4531V14.4844H96.0664V16.4531H95.1055ZM91.2852 16.4531V14.4844H92.2344V16.4531H91.2852ZM97.0215 13.6934V11.7246H97.9824V13.6934H97.0215ZM93.1953 13.6934V11.7246H94.1504V13.6934H93.1953ZM95.1055 10.9395V8.9707H96.0664V10.9395H95.1055ZM91.2852 10.9395V8.9707H92.2344V10.9395H91.2852Z" fill="#E60000"/>
<path d="M98.5156 24.7207V8.9707H106.168V24.7207H98.5156Z" fill="#E60000"/>
<path d="M105.746 16.8457V8.9707H113.398V16.8457H105.746Z" fill="#E60000"/>
<path d="M112.977 24.7207V16.8457H120.629V24.7207H112.977Z" fill="#E60000"/>
<path d="M125.943 24.7207V22.752H126.904V24.7207H125.943ZM122.117 24.7207V22.752H123.072V24.7207H122.117ZM124.027 21.9668V19.998H124.988V21.9668H124.027ZM120.207 21.9668V19.998H121.156V21.9668H120.207ZM125.943 19.207V17.2383H126.904V19.207H125.943ZM122.117 19.207V17.2383H123.072V19.207H122.117ZM124.027 16.4531V14.4844H124.988V16.4531H124.027ZM120.207 16.4531V14.4844H121.156V16.4531H120.207ZM125.943 13.6934V11.7246H126.904V13.6934H125.943ZM122.117 13.6934V11.7246H123.072V13.6934H122.117ZM124.027 10.9395V8.9707H124.988V10.9395H124.027ZM120.207 10.9395V8.9707H121.156V10.9395H120.207Z" fill="#E60000"/>
<path d="M127.438 16.8457V8.9707H135.09V16.8457H127.438Z" fill="#E60000"/>
<path d="M134.668 24.7207V8.9707H142.32V24.7207H134.668Z" fill="#E60000"/>
<path d="M141.898 16.8457V8.9707H149.551V16.8457H141.898Z" fill="#E60000"/>
<path d="M154.865 24.7207V22.752H155.826V24.7207H154.865ZM151.039 24.7207V22.752H151.994V24.7207H151.039ZM152.949 21.9668V19.998H153.91V21.9668H152.949ZM149.129 21.9668V19.998H150.078V21.9668H149.129ZM154.865 19.207V17.2383H155.826V19.207H154.865ZM151.039 19.207V17.2383H151.994V19.207H151.039ZM152.949 16.4531V14.4844H153.91V16.4531H152.949ZM149.129 16.4531V14.4844H150.078V16.4531H149.129ZM154.865 13.6934V11.7246H155.826V13.6934H154.865ZM151.039 13.6934V11.7246H151.994V13.6934H151.039ZM152.949 10.9395V8.9707H153.91V10.9395H152.949ZM149.129 10.9395V8.9707H150.078V10.9395H149.129Z" fill="#E60000"/>
<path d="M156.359 24.7207V8.9707H164.012V24.7207H156.359Z" fill="#E60000"/>
<path d="M163.59 16.8457V8.9707H171.242V16.8457H163.59Z" fill="#E60000"/>
<path d="M170.82 16.8457V8.9707H178.473V16.8457H170.82Z" fill="#E60000"/>
<path d="M183.787 24.7207V22.752H184.748V24.7207H183.787ZM179.961 24.7207V22.752H180.916V24.7207H179.961ZM181.871 21.9668V19.998H182.832V21.9668H181.871ZM178.051 21.9668V19.998H179V21.9668H178.051ZM183.787 19.207V17.2383H184.748V19.207H183.787ZM179.961 19.207V17.2383H180.916V19.207H179.961ZM181.871 16.4531V14.4844H182.832V16.4531H181.871ZM178.051 16.4531V14.4844H179V16.4531H178.051ZM183.787 13.6934V11.7246H184.748V13.6934H183.787ZM179.961 13.6934V11.7246H180.916V13.6934H179.961ZM181.871 10.9395V8.9707H182.832V10.9395H181.871ZM178.051 10.9395V8.9707H179V10.9395H178.051Z" fill="#E60000"/>
<path d="M188.615 25.5176V5.83594H189.582V25.5176H188.615Z" fill="#E60000"/>
<path d="M0.623047 40.5176V20.8359H1.58984V40.5176H0.623047Z" fill="#D20000"/>
<path d="M10.2559 39.7207V37.752H11.2168V39.7207H10.2559ZM6.42969 39.7207V37.752H7.38477V39.7207H6.42969ZM8.33984 36.9668V34.998H9.30078V36.9668H8.33984ZM4.51953 36.9668V34.998H5.46875V36.9668H4.51953ZM10.2559 34.207V32.2383H11.2168V34.207H10.2559ZM6.42969 34.207V32.2383H7.38477V34.207H6.42969ZM8.33984 31.4531V29.4844H9.30078V31.4531H8.33984ZM4.51953 31.4531V29.4844H5.46875V31.4531H4.51953ZM10.2559 28.6934V26.7246H11.2168V28.6934H10.2559ZM6.42969 28.6934V26.7246H7.38477V28.6934H6.42969ZM8.33984 25.9395V23.9707H9.30078V25.9395H8.33984ZM4.51953 25.9395V23.9707H5.46875V25.9395H4.51953Z" fill="#D20000"/>
<path d="M11.75 39.7207V23.9707H19.4023V39.7207H11.75Z" fill="#D20000"/>
<path d="M18.9805 31.8457V23.9707H26.6328V31.8457H18.9805Z" fill="#D20000"/>
<path d="M26.2109 31.8457V23.9707H33.8633V31.8457H26.2109Z" fill="#D20000"/>
<path d="M39.1777 39.7207V37.752H40.1387V39.7207H39.1777ZM35.3516 39.7207V37.752H36.3066V39.7207H35.3516ZM37.2617 36.9668V34.998H38.2227V36.9668H37.2617ZM33.4414 36.9668V34.998H34.3906V36.9668H33.4414ZM39.1777 34.207V32.2383H40.1387V34.207H39.1777ZM35.3516 34.207V32.2383H36.3066V34.207H35.3516ZM37.2617 31.4531V29.4844H38.2227V31.4531H37.2617ZM33.4414 31.4531V29.4844H34.3906V31.4531H33.4414ZM39.1777 28.6934V26.7246H40.1387V28.6934H39.1777ZM35.3516 28.6934V26.7246H36.3066V28.6934H35.3516ZM37.2617 25.9395V23.9707H38.2227V25.9395H37.2617ZM33.4414 25.9395V23.9707H34.3906V25.9395H33.4414Z" fill="#D20000"/>
<path d="M40.6719 39.7207V23.9707H48.3242V39.7207H40.6719Z" fill="#D20000"/>
<path d="M47.9023 31.8457V23.9707H55.5547V31.8457H47.9023Z" fill="#D20000"/>
<path d="M55.1328 31.8457V23.9707H62.7852V31.8457H55.1328Z" fill="#D20000"/>
<path d="M68.0996 39.7207V37.752H69.0605V39.7207H68.0996ZM64.2734 39.7207V37.752H65.2285V39.7207H64.2734ZM66.1836 36.9668V34.998H67.1445V36.9668H66.1836ZM62.3633 36.9668V34.998H63.3125V36.9668H62.3633ZM68.0996 34.207V32.2383H69.0605V34.207H68.0996ZM64.2734 34.207V32.2383H65.2285V34.207H64.2734ZM66.1836 31.4531V29.4844H67.1445V31.4531H66.1836ZM62.3633 31.4531V29.4844H63.3125V31.4531H62.3633ZM68.0996 28.6934V26.7246H69.0605V28.6934H68.0996ZM64.2734 28.6934V26.7246H65.2285V28.6934H64.2734ZM66.1836 25.9395V23.9707H67.1445V25.9395H66.1836ZM62.3633 25.9395V23.9707H63.3125V25.9395H62.3633Z" fill="#D20000"/>
<path d="M69.5938 39.7207V23.9707H77.2461V39.7207H69.5938Z" fill="#D20000"/>
<path d="M76.8242 31.8457V23.9707H84.4766V31.8457H76.8242Z" fill="#D20000"/>
<path d="M84.0547 39.7207V31.8457H91.707V39.7207H84.0547Z" fill="#D20000"/>
<path d="M97.0215 39.7207V37.752H97.9824V39.7207H97.0215ZM93.1953 39.7207V37.752H94.1504V39.7207H93.1953ZM95.1055 36.9668V34.998H96.0664V36.9668H95.1055ZM91.2852 36.9668V34.998H92.2344V36.9668H91.2852ZM97.0215 34.207V32.2383H97.9824V34.207H97.0215ZM93.1953 34.207V32.2383H94.1504V34.207H93.1953ZM95.1055 31.4531V29.4844H96.0664V31.4531H95.1055ZM91.2852 31.4531V29.4844H92.2344V31.4531H91.2852ZM97.0215 28.6934V26.7246H97.9824V28.6934H97.0215ZM93.1953 28.6934V26.7246H94.1504V28.6934H93.1953ZM95.1055 25.9395V23.9707H96.0664V25.9395H95.1055ZM91.2852 25.9395V23.9707H92.2344V25.9395H91.2852Z" fill="#D20000"/>
<path d="M98.5156 39.7207V23.9707H106.168V39.7207H98.5156Z" fill="#D20000"/>
<path d="M105.746 31.8457V23.9707H113.398V31.8457H105.746Z" fill="#D20000"/>
<path d="M112.977 39.7207V31.8457H120.629V39.7207H112.977Z" fill="#D20000"/>
<path d="M125.943 39.7207V37.752H126.904V39.7207H125.943ZM122.117 39.7207V37.752H123.072V39.7207H122.117ZM124.027 36.9668V34.998H124.988V36.9668H124.027ZM120.207 36.9668V34.998H121.156V36.9668H120.207ZM125.943 34.207V32.2383H126.904V34.207H125.943ZM122.117 34.207V32.2383H123.072V34.207H122.117ZM124.027 31.4531V29.4844H124.988V31.4531H124.027ZM120.207 31.4531V29.4844H121.156V31.4531H120.207ZM125.943 28.6934V26.7246H126.904V28.6934H125.943ZM122.117 28.6934V26.7246H123.072V28.6934H122.117ZM124.027 25.9395V23.9707H124.988V25.9395H124.027ZM120.207 25.9395V23.9707H121.156V25.9395H120.207Z" fill="#D20000"/>
<path d="M133.174 39.7207V37.752H134.135V39.7207H133.174ZM129.348 39.7207V37.752H130.303V39.7207H129.348ZM131.258 36.9668V34.998H132.219V36.9668H131.258ZM127.438 36.9668V34.998H128.387V36.9668H127.438ZM133.174 34.207V32.2383H134.135V34.207H133.174ZM129.348 34.207V32.2383H130.303V34.207H129.348ZM131.258 31.4531V29.4844H132.219V31.4531H131.258ZM127.438 31.4531V29.4844H128.387V31.4531H127.438ZM133.174 28.6934V26.7246H134.135V28.6934H133.174ZM129.348 28.6934V26.7246H130.303V28.6934H129.348ZM131.258 25.9395V23.9707H132.219V25.9395H131.258ZM127.438 25.9395V23.9707H128.387V25.9395H127.438Z" fill="#D20000"/>
<path d="M134.668 39.7207V23.9707H142.32V39.7207H134.668Z" fill="#D20000"/>
<path d="M147.635 39.7207V37.752H148.596V39.7207H147.635ZM143.809 39.7207V37.752H144.764V39.7207H143.809ZM145.719 36.9668V34.998H146.68V36.9668H145.719ZM141.898 36.9668V34.998H142.848V36.9668H141.898ZM147.635 34.207V32.2383H148.596V34.207H147.635ZM143.809 34.207V32.2383H144.764V34.207H143.809ZM145.719 31.4531V29.4844H146.68V31.4531H145.719ZM141.898 31.4531V29.4844H142.848V31.4531H141.898ZM147.635 28.6934V26.7246H148.596V28.6934H147.635ZM143.809 28.6934V26.7246H144.764V28.6934H143.809ZM145.719 25.9395V23.9707H146.68V25.9395H145.719ZM141.898 25.9395V23.9707H142.848V25.9395H141.898Z" fill="#D20000"/>
<path d="M154.865 39.7207V37.752H155.826V39.7207H154.865ZM151.039 39.7207V37.752H151.994V39.7207H151.039ZM152.949 36.9668V34.998H153.91V36.9668H152.949ZM149.129 36.9668V34.998H150.078V36.9668H149.129ZM154.865 34.207V32.2383H155.826V34.207H154.865ZM151.039 34.207V32.2383H151.994V34.207H151.039ZM152.949 31.4531V29.4844H153.91V31.4531H152.949ZM149.129 31.4531V29.4844H150.078V31.4531H149.129ZM154.865 28.6934V26.7246H155.826V28.6934H154.865ZM151.039 28.6934V26.7246H151.994V28.6934H151.039ZM152.949 25.9395V23.9707H153.91V25.9395H152.949ZM149.129 25.9395V23.9707H150.078V25.9395H149.129Z" fill="#D20000"/>
<path d="M156.359 39.7207V23.9707H164.012V39.7207H156.359Z" fill="#D20000"/>
<path d="M169.326 39.7207V37.752H170.287V39.7207H169.326ZM165.5 39.7207V37.752H166.455V39.7207H165.5ZM167.41 36.9668V34.998H168.371V36.9668H167.41ZM163.59 36.9668V34.998H164.539V36.9668H163.59ZM169.326 34.207V32.2383H170.287V34.207H169.326ZM165.5 34.207V32.2383H166.455V34.207H165.5ZM167.41 31.4531V29.4844H168.371V31.4531H167.41ZM163.59 31.4531V29.4844H164.539V31.4531H163.59ZM169.326 28.6934V26.7246H170.287V28.6934H169.326ZM165.5 28.6934V26.7246H166.455V28.6934H165.5ZM167.41 25.9395V23.9707H168.371V25.9395H167.41ZM163.59 25.9395V23.9707H164.539V25.9395H163.59Z" fill="#D20000"/>
<path d="M176.557 39.7207V37.752H177.518V39.7207H176.557ZM172.73 39.7207V37.752H173.686V39.7207H172.73ZM174.641 36.9668V34.998H175.602V36.9668H174.641ZM170.82 36.9668V34.998H171.77V36.9668H170.82ZM176.557 34.207V32.2383H177.518V34.207H176.557ZM172.73 34.207V32.2383H173.686V34.207H172.73ZM174.641 31.4531V29.4844H175.602V31.4531H174.641ZM170.82 31.4531V29.4844H171.77V31.4531H170.82ZM176.557 28.6934V26.7246H177.518V28.6934H176.557ZM172.73 28.6934V26.7246H173.686V28.6934H172.73ZM174.641 25.9395V23.9707H175.602V25.9395H174.641ZM170.82 25.9395V23.9707H171.77V25.9395H170.82Z" fill="#D20000"/>
<path d="M183.787 39.7207V37.752H184.748V39.7207H183.787ZM179.961 39.7207V37.752H180.916V39.7207H179.961ZM181.871 36.9668V34.998H182.832V36.9668H181.871ZM178.051 36.9668V34.998H179V36.9668H178.051ZM183.787 34.207V32.2383H184.748V34.207H183.787ZM179.961 34.207V32.2383H180.916V34.207H179.961ZM181.871 31.4531V29.4844H182.832V31.4531H181.871ZM178.051 31.4531V29.4844H179V31.4531H178.051ZM183.787 28.6934V26.7246H184.748V28.6934H183.787ZM179.961 28.6934V26.7246H180.916V28.6934H179.961ZM181.871 25.9395V23.9707H182.832V25.9395H181.871ZM178.051 25.9395V23.9707H179V25.9395H178.051Z" fill="#D20000"/>
<path d="M188.615 40.5176V20.8359H189.582V40.5176H188.615Z" fill="#D20000"/>
<path d="M0.623047 55.5176V35.8359H1.58984V55.5176H0.623047Z" fill="#BE0000"/>
<path d="M10.2559 54.7207V52.752H11.2168V54.7207H10.2559ZM6.42969 54.7207V52.752H7.38477V54.7207H6.42969ZM8.33984 51.9668V49.998H9.30078V51.9668H8.33984ZM4.51953 51.9668V49.998H5.46875V51.9668H4.51953ZM10.2559 49.207V47.2383H11.2168V49.207H10.2559ZM6.42969 49.207V47.2383H7.38477V49.207H6.42969ZM8.33984 46.4531V44.4844H9.30078V46.4531H8.33984ZM4.51953 46.4531V44.4844H5.46875V46.4531H4.51953ZM10.2559 43.6934V41.7246H11.2168V43.6934H10.2559ZM6.42969 43.6934V41.7246H7.38477V43.6934H6.42969ZM8.33984 40.9395V38.9707H9.30078V40.9395H8.33984ZM4.51953 40.9395V38.9707H5.46875V40.9395H4.51953Z" fill="#BE0000"/>
<path d="M11.75 46.8457V38.9707H19.4023V46.8457H11.75Z" fill="#BE0000"/>
<path d="M24.7168 54.7207V52.752H25.6777V54.7207H24.7168ZM20.8906 54.7207V52.752H21.8457V54.7207H20.8906ZM22.8008 51.9668V49.998H23.7617V51.9668H22.8008ZM18.9805 51.9668V49.998H19.9297V51.9668H18.9805ZM24.7168 49.207V47.2383H25.6777V49.207H24.7168ZM20.8906 49.207V47.2383H21.8457V49.207H20.8906ZM22.8008 46.4531V44.4844H23.7617V46.4531H22.8008ZM18.9805 46.4531V44.4844H19.9297V46.4531H18.9805ZM24.7168 43.6934V41.7246H25.6777V43.6934H24.7168ZM20.8906 43.6934V41.7246H21.8457V43.6934H20.8906ZM22.8008 40.9395V38.9707H23.7617V40.9395H22.8008ZM18.9805 40.9395V38.9707H19.9297V40.9395H18.9805Z" fill="#BE0000"/>
<path d="M31.9473 54.7207V52.752H32.9082V54.7207H31.9473ZM28.1211 54.7207V52.752H29.0762V54.7207H28.1211ZM30.0312 51.9668V49.998H30.9922V51.9668H30.0312ZM26.2109 51.9668V49.998H27.1602V51.9668H26.2109ZM31.9473 49.207V47.2383H32.9082V49.207H31.9473ZM28.1211 49.207V47.2383H29.0762V49.207H28.1211ZM30.0312 46.4531V44.4844H30.9922V46.4531H30.0312ZM26.2109 46.4531V44.4844H27.1602V46.4531H26.2109ZM31.9473 43.6934V41.7246H32.9082V43.6934H31.9473ZM28.1211 43.6934V41.7246H29.0762V43.6934H28.1211ZM30.0312 40.9395V38.9707H30.9922V40.9395H30.0312ZM26.2109 40.9395V38.9707H27.1602V40.9395H26.2109Z" fill="#BE0000"/>
<path d="M39.1777 54.7207V52.752H40.1387V54.7207H39.1777ZM35.3516 54.7207V52.752H36.3066V54.7207H35.3516ZM37.2617 51.9668V49.998H38.2227V51.9668H37.2617ZM33.4414 51.9668V49.998H34.3906V51.9668H33.4414ZM39.1777 49.207V47.2383H40.1387V49.207H39.1777ZM35.3516 49.207V47.2383H36.3066V49.207H35.3516ZM37.2617 46.4531V44.4844H38.2227V46.4531H37.2617ZM33.4414 46.4531V44.4844H34.3906V46.4531H33.4414ZM39.1777 43.6934V41.7246H40.1387V43.6934H39.1777ZM35.3516 43.6934V41.7246H36.3066V43.6934H35.3516ZM37.2617 40.9395V38.9707H38.2227V40.9395H37.2617ZM33.4414 40.9395V38.9707H34.3906V40.9395H33.4414Z" fill="#BE0000"/>
<path d="M40.6719 46.8457V38.9707H48.3242V46.8457H40.6719Z" fill="#BE0000"/>
<path d="M47.9023 46.8457V38.9707H55.5547V46.8457H47.9023Z" fill="#BE0000"/>
<path d="M55.1328 46.8457V38.9707H62.7852V46.8457H55.1328Z" fill="#BE0000"/>
<path d="M68.0996 54.7207V52.752H69.0605V54.7207H68.0996ZM64.2734 54.7207V52.752H65.2285V54.7207H64.2734ZM66.1836 51.9668V49.998H67.1445V51.9668H66.1836ZM62.3633 51.9668V49.998H63.3125V51.9668H62.3633ZM68.0996 49.207V47.2383H69.0605V49.207H68.0996ZM64.2734 49.207V47.2383H65.2285V49.207H64.2734ZM66.1836 46.4531V44.4844H67.1445V46.4531H66.1836ZM62.3633 46.4531V44.4844H63.3125V46.4531H62.3633ZM68.0996 43.6934V41.7246H69.0605V43.6934H68.0996ZM64.2734 43.6934V41.7246H65.2285V43.6934H64.2734ZM66.1836 40.9395V38.9707H67.1445V40.9395H66.1836ZM62.3633 40.9395V38.9707H63.3125V40.9395H62.3633Z" fill="#BE0000"/>
<path d="M69.5938 46.8457V38.9707H77.2461V46.8457H69.5938Z" fill="#BE0000"/>
<path d="M82.5605 54.7207V52.752H83.5215V54.7207H82.5605ZM78.7344 54.7207V52.752H79.6895V54.7207H78.7344ZM80.6445 51.9668V49.998H81.6055V51.9668H80.6445ZM76.8242 51.9668V49.998H77.7734V51.9668H76.8242ZM82.5605 49.207V47.2383H83.5215V49.207H82.5605ZM78.7344 49.207V47.2383H79.6895V49.207H78.7344ZM80.6445 46.4531V44.4844H81.6055V46.4531H80.6445ZM76.8242 46.4531V44.4844H77.7734V46.4531H76.8242ZM82.5605 43.6934V41.7246H83.5215V43.6934H82.5605ZM78.7344 43.6934V41.7246H79.6895V43.6934H78.7344ZM80.6445 40.9395V38.9707H81.6055V40.9395H80.6445ZM76.8242 40.9395V38.9707H77.7734V40.9395H76.8242Z" fill="#BE0000"/>
<path d="M84.0547 46.8457V38.9707H91.707V46.8457H84.0547Z" fill="#BE0000"/>
<path d="M97.0215 54.7207V52.752H97.9824V54.7207H97.0215ZM93.1953 54.7207V52.752H94.1504V54.7207H93.1953ZM95.1055 51.9668V49.998H96.0664V51.9668H95.1055ZM91.2852 51.9668V49.998H92.2344V51.9668H91.2852ZM97.0215 49.207V47.2383H97.9824V49.207H97.0215ZM93.1953 49.207V47.2383H94.1504V49.207H93.1953ZM95.1055 46.4531V44.4844H96.0664V46.4531H95.1055ZM91.2852 46.4531V44.4844H92.2344V46.4531H91.2852ZM97.0215 43.6934V41.7246H97.9824V43.6934H97.0215ZM93.1953 43.6934V41.7246H94.1504V43.6934H93.1953ZM95.1055 40.9395V38.9707H96.0664V40.9395H95.1055ZM91.2852 40.9395V38.9707H92.2344V40.9395H91.2852Z" fill="#BE0000"/>
<path d="M98.5156 46.8457V38.9707H106.168V46.8457H98.5156Z" fill="#BE0000"/>
<path d="M111.482 54.7207V52.752H112.443V54.7207H111.482ZM107.656 54.7207V52.752H108.611V54.7207H107.656ZM109.566 51.9668V49.998H110.527V51.9668H109.566ZM105.746 51.9668V49.998H106.695V51.9668H105.746ZM111.482 49.207V47.2383H112.443V49.207H111.482ZM107.656 49.207V47.2383H108.611V49.207H107.656ZM109.566 46.4531V44.4844H110.527V46.4531H109.566ZM105.746 46.4531V44.4844H106.695V46.4531H105.746ZM111.482 43.6934V41.7246H112.443V43.6934H111.482ZM107.656 43.6934V41.7246H108.611V43.6934H107.656ZM109.566 40.9395V38.9707H110.527V40.9395H109.566ZM105.746 40.9395V38.9707H106.695V40.9395H105.746Z" fill="#BE0000"/>
<path d="M112.977 46.8457V38.9707H120.629V46.8457H112.977Z" fill="#BE0000"/>
<path d="M125.943 54.7207V52.752H126.904V54.7207H125.943ZM122.117 54.7207V52.752H123.072V54.7207H122.117ZM124.027 51.9668V49.998H124.988V51.9668H124.027ZM120.207 51.9668V49.998H121.156V51.9668H120.207ZM125.943 49.207V47.2383H126.904V49.207H125.943ZM122.117 49.207V47.2383H123.072V49.207H122.117ZM124.027 46.4531V44.4844H124.988V46.4531H124.027ZM120.207 46.4531V44.4844H121.156V46.4531H120.207ZM125.943 43.6934V41.7246H126.904V43.6934H125.943ZM122.117 43.6934V41.7246H123.072V43.6934H122.117ZM124.027 40.9395V38.9707H124.988V40.9395H124.027ZM120.207 40.9395V38.9707H121.156V40.9395H120.207Z" fill="#BE0000"/>
<path d="M127.438 46.8457V38.9707H135.09V46.8457H127.438Z" fill="#BE0000"/>
<path d="M134.668 46.8457V38.9707H142.32V46.8457H134.668Z" fill="#BE0000"/>
<path d="M141.898 46.8457V38.9707H149.551V46.8457H141.898Z" fill="#BE0000"/>
<path d="M154.865 54.7207V52.752H155.826V54.7207H154.865ZM151.039 54.7207V52.752H151.994V54.7207H151.039ZM152.949 51.9668V49.998H153.91V51.9668H152.949ZM149.129 51.9668V49.998H150.078V51.9668H149.129ZM154.865 49.207V47.2383H155.826V49.207H154.865ZM151.039 49.207V47.2383H151.994V49.207H151.039ZM152.949 46.4531V44.4844H153.91V46.4531H152.949ZM149.129 46.4531V44.4844H150.078V46.4531H149.129ZM154.865 43.6934V41.7246H155.826V43.6934H154.865ZM151.039 43.6934V41.7246H151.994V43.6934H151.039ZM152.949 40.9395V38.9707H153.91V40.9395H152.949ZM149.129 40.9395V38.9707H150.078V40.9395H149.129Z" fill="#BE0000"/>
<path d="M156.359 46.8457V38.9707H164.012V46.8457H156.359Z" fill="#BE0000"/>
<path d="M163.59 46.8457V38.9707H171.242V46.8457H163.59Z" fill="#BE0000"/>
<path d="M170.82 46.8457V38.9707H178.473V46.8457H170.82Z" fill="#BE0000"/>
<path d="M183.787 54.7207V52.752H184.748V54.7207H183.787ZM179.961 54.7207V52.752H180.916V54.7207H179.961ZM181.871 51.9668V49.998H182.832V51.9668H181.871ZM178.051 51.9668V49.998H179V51.9668H178.051ZM183.787 49.207V47.2383H184.748V49.207H183.787ZM179.961 49.207V47.2383H180.916V49.207H179.961ZM181.871 46.4531V44.4844H182.832V46.4531H181.871ZM178.051 46.4531V44.4844H179V46.4531H178.051ZM183.787 43.6934V41.7246H184.748V43.6934H183.787ZM179.961 43.6934V41.7246H180.916V43.6934H179.961ZM181.871 40.9395V38.9707H182.832V40.9395H181.871ZM178.051 40.9395V38.9707H179V40.9395H178.051Z" fill="#BE0000"/>
<path d="M188.615 55.5176V35.8359H189.582V55.5176H188.615Z" fill="#BE0000"/>
<path d="M4.93555 62.1152H2.66797C1.99609 62.1152 1.47852 61.7793 1.11523 61.1074C0.787109 60.502 0.623047 59.7773 0.623047 58.9336V50.8359H1.58984V58.9336C1.58984 59.5586 1.67969 60.0293 1.85938 60.3457C2.04297 60.6621 2.3125 60.8203 2.66797 60.8203H4.93555V62.1152Z" fill="#AA0000"/>
<path d="M4.51953 62.1152V60.8203H12.1719V62.1152H4.51953Z" fill="#AA0000"/>
<path d="M11.75 62.1152V60.8203H19.4023V62.1152H11.75Z" fill="#AA0000"/>
<path d="M18.9805 62.1152V60.8203H26.6328V62.1152H18.9805Z" fill="#AA0000"/>
<path d="M26.2109 62.1152V60.8203H33.8633V62.1152H26.2109Z" fill="#AA0000"/>
<path d="M33.4414 62.1152V60.8203H41.0938V62.1152H33.4414Z" fill="#AA0000"/>
<path d="M40.6719 62.1152V60.8203H48.3242V62.1152H40.6719Z" fill="#AA0000"/>
<path d="M47.9023 62.1152V60.8203H55.5547V62.1152H47.9023Z" fill="#AA0000"/>
<path d="M55.1328 62.1152V60.8203H62.7852V62.1152H55.1328Z" fill="#AA0000"/>
<path d="M62.3633 62.1152V60.8203H70.0156V62.1152H62.3633Z" fill="#AA0000"/>
<path d="M69.5938 62.1152V60.8203H77.2461V62.1152H69.5938Z" fill="#AA0000"/>
<path d="M76.8242 62.1152V60.8203H84.4766V62.1152H76.8242Z" fill="#AA0000"/>
<path d="M84.0547 62.1152V60.8203H91.707V62.1152H84.0547Z" fill="#AA0000"/>
<path d="M91.2852 62.1152V60.8203H98.9375V62.1152H91.2852Z" fill="#AA0000"/>
<path d="M98.5156 62.1152V60.8203H106.168V62.1152H98.5156Z" fill="#AA0000"/>
<path d="M105.746 62.1152V60.8203H113.398V62.1152H105.746Z" fill="#AA0000"/>
<path d="M112.977 62.1152V60.8203H120.629V62.1152H112.977Z" fill="#AA0000"/>
<path d="M120.207 62.1152V60.8203H127.859V62.1152H120.207Z" fill="#AA0000"/>
<path d="M127.438 62.1152V60.8203H135.09V62.1152H127.438Z" fill="#AA0000"/>
<path d="M134.668 62.1152V60.8203H142.32V62.1152H134.668Z" fill="#AA0000"/>
<path d="M141.898 62.1152V60.8203H149.551V62.1152H141.898Z" fill="#AA0000"/>
<path d="M149.129 62.1152V60.8203H156.781V62.1152H149.129Z" fill="#AA0000"/>
<path d="M156.359 62.1152V60.8203H164.012V62.1152H156.359Z" fill="#AA0000"/>
<path d="M163.59 62.1152V60.8203H171.242V62.1152H163.59Z" fill="#AA0000"/>
<path d="M170.82 62.1152V60.8203H178.473V62.1152H170.82Z" fill="#AA0000"/>
<path d="M178.051 62.1152V60.8203H185.703V62.1152H178.051Z" fill="#AA0000"/>
<path d="M185.281 62.1152V60.8203H187.543C187.898 60.8203 188.166 60.6621 188.346 60.3457C188.529 60.0293 188.621 59.5586 188.621 58.9336V50.8359H189.588V58.9336C189.588 59.7773 189.424 60.502 189.096 61.1074C188.732 61.7793 188.215 62.1152 187.543 62.1152H185.281Z" fill="#AA0000"/>
</svg>
